<svg xmlns="http://www.w3.org/2000/svg" data-name="Layer 1" viewBox="0 0 268.58 164.77"><path d="M7.18 85.6H0V.03h29.9q11.12 0 16.86 6.42t5.74 17.58q0 10.39-5.2 16.64t-15.37 6.8h-1.79l22.6 38.13h-8l-22-37.77H7.18Zm22.6-43.9q7.53 0 11.36-4.17a15 15 0 0 0 3.83-10.5v-5.94a15 15 0 0 0-3.83-10.54q-3.82-4.17-11.36-4.17H7.18V41.7ZM117.44 85.6q-4.2 0-6-2.08a9.35 9.35 0 0 1-2-5.64v-2.21h-.59a18 18 0 0 1-6.7 8.22q-4.66 3.18-12.68 3.19-9.69 0-15.24-4.85t-5.59-13.67a19.79 19.79 0 0 1 1.43-7.53 13.64 13.64 0 0 1 4.42-5.7 22.54 22.54 0 0 1 7.84-3.62 46.13 46.13 0 0 1 11.72-1.28h15.02v-7.71q0-7.94-4.24-11.83t-11.76-3.86q-12.68 0-17.7 10.3l-4.66-3.43a21.1 21.1 0 0 1 8.07-9.26q5.68-3.73 14.65-3.74 10.52 0 16.5 5.58t6 15.51v37.53h9.14v6.13Zm-26.91-4.41a26 26 0 0 0 7.29-1 19.84 19.84 0 0 0 5.86-2.76 13.14 13.14 0 0 0 4-4.36 11.55 11.55 0 0 0 1.39-5.74V55.68H94q-9.69 0-13.93 3a9.48 9.48 0 0 0-4.25 8.16v3.19q0 5.52 4 8.34t10.71 2.82M139.32 85.6V22.32h6.34v7.36h.41a16.38 16.38 0 0 1 4.24-6.25q2.81-2.58 7.95-2.58t8.13 2.64a12 12 0 0 1 3.59 7.29h.24a18.56 18.56 0 0 1 4.78-7.11q3.12-2.82 8.62-2.82 7.17 0 10 4.84t2.81 14.05V85.6h-6.36V40.84q0-7.73-2.09-10.91t-6.64-3.19a9.89 9.89 0 0 0-7.29 3q-3 3-3 9.14V85.6h-6.38V40.84q0-7.73-2.09-10.91t-6.64-3.19a9.89 9.89 0 0 0-7.29 3q-3 3-3 9.14V85.6ZM260.94 85.6q-4.2 0-6-2.08a9.35 9.35 0 0 1-2-5.64v-2.21h-.6a17.93 17.93 0 0 1-6.69 8.22q-4.67 3.18-12.68 3.19-9.69 0-15.24-4.85t-5.57-13.67a19.79 19.79 0 0 1 1.36-7.53 13.64 13.64 0 0 1 4.42-5.7 22.54 22.54 0 0 1 7.84-3.62 46.07 46.07 0 0 1 11.72-1.28h15.06v-7.71q0-7.94-4.24-11.83t-11.78-3.86q-12.67 0-17.7 10.3l-4.66-3.43a21.1 21.1 0 0 1 8.07-9.26q5.67-3.73 14.65-3.74 10.51 0 16.5 5.58t6 15.51v37.53h9.21v6.13Zm-26.87-4.41a26 26 0 0 0 7.29-1 19.84 19.84 0 0 0 5.86-2.76 13.14 13.14 0 0 0 3.95-4.36 11.55 11.55 0 0 0 1.43-5.76V55.68h-15.1q-9.69 0-13.93 3a9.48 9.48 0 0 0-4.25 8.16v3.19q0 5.52 4 8.34t10.75 2.82"/></svg>