<svg id="Layer_1" data-name="Layer 1" xmlns="http://www.w3.org/2000/svg" viewBox="0 0 268.58 164.77"><text x="-18.93" y="-21.97"/><path d="M26.11,107.57H18.93V22h29.9q11.12,0,16.86,6.42T71.43,46q0,10.39-5.2,16.64T50.86,69.44H49.07l22.6,38.13h-8l-22-37.77H26.11Zm22.6-43.9q7.53,0,11.36-4.17A15,15,0,0,0,63.9,49V43.06a15,15,0,0,0-3.83-10.54q-3.82-4.17-11.36-4.17H26.11V63.67Z" transform="translate(-18.93 -21.97)"/><path d="M136.37,107.57q-4.2,0-6-2.08a9.35,9.35,0,0,1-2-5.64V97.64h-.59a18,18,0,0,1-6.7,8.22q-4.66,3.18-12.68,3.19-9.69,0-15.24-4.85T87.57,90.53A19.79,19.79,0,0,1,89,83a13.64,13.64,0,0,1,4.42-5.7,22.54,22.54,0,0,1,7.84-3.62,46.13,46.13,0,0,1,11.72-1.28H128V64.69q0-7.94-4.24-11.83T112,49q-12.68,0-17.7,10.3l-4.66-3.43a21.1,21.1,0,0,1,8.07-9.26q5.68-3.73,14.65-3.74,10.52,0,16.5,5.58t6,15.51v37.53H144v6.13Zm-26.91-4.41a26,26,0,0,0,7.29-1,19.84,19.84,0,0,0,5.86-2.76,13.14,13.14,0,0,0,4-4.36A11.55,11.55,0,0,0,128,89.3V77.65H112.93q-9.69,0-13.93,3a9.48,9.48,0,0,0-4.25,8.16V92q0,5.52,4,8.34T109.46,103.16Z" transform="translate(-18.93 -21.97)"/><path d="M158.25,107.57V44.29h6.34v7.36H165a16.38,16.38,0,0,1,4.24-6.25q2.81-2.58,7.95-2.58t8.13,2.64a12,12,0,0,1,3.59,7.29h.24a18.56,18.56,0,0,1,4.78-7.11q3.12-2.82,8.62-2.82,7.17,0,10,4.84t2.81,14.05v45.86H209V62.81q0-7.73-2.09-10.91t-6.64-3.19a9.89,9.89,0,0,0-7.29,3q-3,3-3,9.14v46.72H183.6V62.81q0-7.73-2.09-10.91t-6.64-3.19a9.89,9.89,0,0,0-7.29,3q-3,3-3,9.14v46.72Z" transform="translate(-18.93 -21.97)"/><path d="M279.87,107.57q-4.2,0-6-2.08a9.35,9.35,0,0,1-2-5.64V97.64h-.6a17.93,17.93,0,0,1-6.69,8.22q-4.67,3.18-12.68,3.19-9.69,0-15.24-4.85t-5.57-13.67A19.79,19.79,0,0,1,232.45,83a13.64,13.64,0,0,1,4.42-5.7,22.54,22.54,0,0,1,7.84-3.62,46.07,46.07,0,0,1,11.72-1.28h15.06V64.69q0-7.94-4.24-11.83T255.47,49q-12.67,0-17.7,10.3l-4.66-3.43a21.1,21.1,0,0,1,8.07-9.26q5.67-3.73,14.65-3.74,10.51,0,16.5,5.58t6,15.51v37.53h9.21v6.13ZM253,103.16a26,26,0,0,0,7.29-1,19.84,19.84,0,0,0,5.86-2.76,13.14,13.14,0,0,0,3.95-4.36,11.55,11.55,0,0,0,1.43-5.76V77.65H256.43q-9.69,0-13.93,3a9.48,9.48,0,0,0-4.25,8.16V92q0,5.52,4,8.34T253,103.16Z" transform="translate(-18.93 -21.97)"/></svg>